<?xml version="1.0" encoding="UTF-8"?>
<svg width="17px" height="9px" viewBox="0 0 17 9" version="1.1" xmlns="http://www.w3.org/2000/svg" xmlns:xlink="http://www.w3.org/1999/xlink">
	<g id="Group-2" fill-rule="nonzero" fill="#555555">
		<path d="M5.62888889,6.88695652 L3.89111111,6.88695652 C2.79555556,6.88695652 1.88888889,5.9673913 1.88888889,4.81304348 L1.88888889,4.03043478 C1.88888889,2.89565217 2.77666667,1.95652174 3.89111111,1.95652174 L7.00777778,1.95652174 C8.10333333,1.95652174 9.01,2.87608696 9.01,4.03043478 L9.01,4.91086957 C9.01,5.45869565 9.42555556,5.88913043 9.95444444,5.88913043 C10.4833333,5.88913043 10.8988889,5.45869565 10.8988889,4.91086957 L10.8988889,4.03043478 C10.8988889,1.81956522 9.16111111,0 7.00777778,0 L3.89111111,0 C1.75666667,0 0,1.8 0,4.03043478 L0,4.81304348 C0,7.02391304 1.73777778,8.84347826 3.89111111,8.84347826 L5.62888889,8.84347826 C6.15777778,8.84347826 6.57333333,8.41304348 6.57333333,7.86521739 C6.57333333,7.3173913 6.15777778,6.88695652 5.62888889,6.88695652 Z" id="Shape"></path>
		<path d="M13.0522222,0 L11.5411111,0 C11.0122222,0 10.5966667,0.430434783 10.5966667,0.97826087 C10.5966667,1.52608696 11.0122222,1.95652174 11.5411111,1.95652174 L13.0522222,1.95652174 C14.1477778,1.95652174 15.0544444,2.87608696 15.0544444,4.03043478 L15.0544444,4.81304348 C15.0544444,5.94782609 14.1666667,6.88695652 13.0522222,6.88695652 L10.1244444,6.88695652 C9.02888889,6.88695652 8.12222222,5.9673913 8.12222222,4.81304348 L8.12222222,4.12826087 C8.12222222,3.58043478 7.70666667,3.15 7.17777778,3.15 C6.64888889,3.15 6.23333333,3.58043478 6.23333333,4.12826087 L6.23333333,4.81304348 C6.23333333,7.02391304 7.97111111,8.84347826 10.1244444,8.84347826 L13.0522222,8.84347826 C15.1866667,8.84347826 16.9433333,7.04347826 16.9433333,4.81304348 L16.9433333,4.03043478 C16.9433333,1.81956522 15.1866667,0 13.0522222,0 Z" id="Shape"></path>
	</g>
</svg>
